<?xml version="1.0" standalone="no"?><!DOCTYPE svg PUBLIC "-//W3C//DTD SVG 1.1//EN" "http://www.w3.org/Graphics/SVG/1.1/DTD/svg11.dtd"><svg t="1754463876758" class="icon" viewBox="0 0 1024 1024" version="1.1" xmlns="http://www.w3.org/2000/svg" p-id="4086" xmlns:xlink="http://www.w3.org/1999/xlink" width="200" height="200"><path d="M779.45160692 754.82883159c-67.57489778 72.75305086-167.38379852 114.56663703-273.92429828 114.56663704-100.19726222 0-196.12254815-37.80051753-263.1796306-103.56306173-9.45012939-9.19122173-24.59622717-9.19122173-33.78744889 0.38836148-9.19122173 9.45012939-9.0617679 24.59622717 0.38836147 33.78744889 75.85994272 74.43595061 184.08334222 117.28516741 296.70817187 117.28516741 119.74479013 0 232.36961975-47.38010075 309.00628541-129.84218864 8.93231408-9.70903703 8.41449876-24.72568098-1.29453827-33.78744889-9.83849086-9.0617679-24.85513482-8.54395259-33.91690271 1.16508444zM127.78104099 581.36070319c13.20429037 0 23.94895803-10.74466765 23.94895803-23.94895802 0-36.89434075 7.63777581-72.23523555 21.10097383-105.24596148 2.20071506-2.97743803 3.62470717-6.47269136 4.2719763-10.22685234C229.27284148 326.98393282 356.65540741 245.42802171 505.52730864 245.42802171c195.08691753 0 353.79730963 139.93958717 353.79730963 311.98372346 0 13.20429037 10.74466765 23.94895803 23.94895803 23.94895802s23.94895803-10.74466765 23.94895803-23.94895802c0-41.29577086-8.15559111-80.90864197-22.65441976-117.93243654 33.14017975-220.71877531-40.26014025-324.92910617-43.36703208-329.20108248-6.08432987-8.41449876-16.95845136-11.9097521-26.92639607-8.54395258-48.28627753 16.05227457-148.09517827 108.2233995-159.35766124 118.57970567-0.9061768 0.77672297-1.29453827 1.81235358-1.9418074 2.71853038-45.69720098-16.18172839-95.2780168-25.37295013-147.44790914-25.37295013-51.0048079 0-99.67944691 8.93231408-144.59992494 24.46677333-0.51781531-0.51781531-0.77672297-1.29453827-1.29453826-1.81235358-11.26248297-10.48576-111.0713837-102.52743111-159.35766125-118.57970567-9.96794469-3.3657995-20.71261235 0.12945383-26.92639604 8.54395258-3.10689185 4.2719763-74.95376592 106.54049975-44.14375506 322.85784495-16.05227457 38.83614815-25.2434963 80.64973431-25.24349629 124.40512791 0 13.07483653 10.61521383 23.81950419 23.81950419 23.81950418z m684.16347654-425.77363752c14.11046717 29.77438025 37.92997136 98.6438163 31.97509532 208.93847704-35.85871013-50.22808494-84.92171061-92.04167111-143.17593285-121.29823606 33.52854124-30.16274173 80.64973431-69.38725136 111.20083753-87.64024098z m-609.33916444 0c30.29219555 17.99408197 76.37775803 56.44186864 109.90629926 86.47515654-57.34804543 28.35038815-106.15213827 68.86943605-142.14030222 117.67352889-5.04869925-107.57613037 18.38244347-175.02157431 32.23400296-204.14868543zM240.14696297 620.58521282c-1.29453827-13.07483653-12.68647506-23.04278124-26.02021927-21.48933531l-188.09641085 17.86462816c-13.07483653 1.29453827-22.78387358 12.94538272-21.48933532 26.02021926 1.16508445 12.42756741 11.52139061 21.61878914 23.69005037 21.61878914 0.77672297 0 1.55344592 0 2.3301689-0.12945384l188.09641086-17.86462815c13.07483653-1.29453827 22.65441975-12.94538272 21.48933531-26.02021926zM266.42608988 691.52591012c-4.91924543-12.16865975-18.90025876-18.12353581-31.06891851-13.07483655l-183.30661926 74.69485827c-12.16865975 4.91924543-18.12353581 18.90025876-13.07483656 31.06891851 3.75416098 9.32067555 12.68647506 14.88719013 22.13660445 14.88719014 2.97743803 0 6.08432987-0.51781531 9.0617679-1.81235359l183.30661927-74.69485827c12.03920592-4.91924543 17.86462815-18.90025876 12.94538271-31.06891851zM993.56823703 616.96050567l-188.09641084-17.86462816c-13.33374419-1.55344592-24.85513482 8.41449876-26.02021927 21.48933531-1.29453827 13.07483653 8.41449876 24.85513482 21.4893353 26.02021926l188.09641087 17.86462815c0.77672297 0.12945383 1.55344592 0.12945383 2.33016888 0.12945384 12.16865975 0 22.52496592-9.32067555 23.69005038-21.61878914 1.29453827-13.07483653-8.28504494-24.72568098-21.48933532-26.02021926zM967.41856396 753.01647801L784.24139852 678.32161974c-12.16865975-5.04869925-26.14967309 0.77672297-31.06891852 13.07483655-5.04869925 12.16865975 0.9061768 26.14967309 13.07483654 31.06891851L949.55393582 797.16023307c2.97743803 1.16508445 5.95487605 1.81235358 9.06176788 1.81235358 9.45012939 0 18.38244347-5.56651457 22.13660445-14.88719013 4.78979161-12.16865975-1.03563061-26.14967309-13.33374419-31.06891851z" fill="#0099ff" p-id="4087"></path><path d="M431.99753482 469.25368887c0-24.98458864-21.74824297-45.3088395-48.674639-45.3088395-26.79694222 0-48.67463902 20.19479703-48.67463902 45.3088395 0 24.98458864 21.74824297 45.3088395 48.67463902 45.30883951s48.67463902-20.32425086 48.674639-45.30883951zM689.35174321 469.25368887c0-24.98458864-21.74824297-45.3088395-48.67463902-45.3088395-26.79694222 0-48.67463902 20.19479703-48.67463901 45.3088395 0 24.98458864 21.74824297 45.3088395 48.67463901 45.30883951s48.67463902-20.32425086 48.67463902-45.30883951zM451.28615507 744.60197924c24.72568098 0 44.66157037-16.6995437 58.1247684-37.92997135 13.33374419 21.10097383 33.26963358 37.92997136 57.99531457 37.92997135 41.81358617 0 75.98939653-33.26963358 75.98939653-74.30649678 0-9.83849086-8.02613728-17.86462815-17.86462815-17.86462816-9.83849086 0-17.86462815 8.02613728-17.86462815 17.86462816 0 21.23042765-17.99408197 38.44778667-40.13068642 38.44778667-19.41807408 0-40.13068642-34.17581037-40.13068641-58.1247684 0-9.83849086-8.02613728-17.86462815-17.86462815-17.86462816-9.83849086 0-17.86462815 8.02613728-17.86462814 17.86462816 0 24.07841185-20.71261235 58.12476839-40.13068643 58.1247684-22.13660445 0-40.13068642-17.21735902-40.13068642-38.44778667 0-9.83849086-8.02613728-17.86462815-17.86462815-17.86462816s-17.86462815 8.02613728-17.86462815 17.86462816c-0.38836148 41.0368632 33.65799506 74.3064968 75.60103507 74.30649678z" fill="#0099ff" p-id="4088"></path></svg>