<?xml version="1.0" standalone="no"?><!DOCTYPE svg PUBLIC "-//W3C//DTD SVG 1.1//EN" "http://www.w3.org/Graphics/SVG/1.1/DTD/svg11.dtd"><svg t="1754463891333" class="icon" viewBox="0 0 1024 1024" version="1.1" xmlns="http://www.w3.org/2000/svg" p-id="5290" xmlns:xlink="http://www.w3.org/1999/xlink" width="200" height="200"><path d="M771.2 251m-84.1 0a84.1 84.1 0 1 0 168.2 0 84.1 84.1 0 1 0-168.2 0Z" fill="#FFCDAB" p-id="5291"></path><path d="M771.2 158.2c-6.4 0-11.6-5.2-11.6-11.6v-34.3c0-6.4 5.2-11.6 11.6-11.6s11.6 5.2 11.6 11.6v34.3c0 6.5-5.2 11.6-11.6 11.6zM772.6 409.1c-6.4 0-11.6-5.2-11.6-11.6v-34.3c0-6.4 5.2-11.6 11.6-11.6s11.6 5.2 11.6 11.6v34.3c-0.1 6.5-5.2 11.6-11.6 11.6zM719.7 174c-4.5 0-8.8-2.6-10.6-7l-13.5-31.6c-2.5-5.9 0.2-12.7 6.1-15.2 5.9-2.5 12.7 0.2 15.2 6.1l13.5 31.6c2.5 5.9-0.2 12.7-6.1 15.2-1.5 0.6-3.1 0.9-4.6 0.9zM896.3 335.6c-2.1 0-4.2-0.6-6.1-1.8L861 315.6c-5.4-3.4-7-10.5-3.7-15.9 3.4-5.4 10.5-7 15.9-3.7l29.1 18.2c5.4 3.4 7 10.5 3.7 15.9-2.1 3.6-5.9 5.5-9.7 5.5zM630.4 262.5c-6.4 0-11.6-5.2-11.6-11.6 0-6.4 5.2-11.6 11.6-11.6h34.3c6.4 0 11.6 5.2 11.6 11.6 0 6.4-5.2 11.6-11.6 11.6h-34.3zM844.5 385.1c-3.9 0-7.8-2-9.9-5.6L817 350c-3.3-5.5-1.5-12.6 4-15.9 5.5-3.3 12.6-1.5 15.9 4l17.6 29.5c3.3 5.5 1.5 12.6-4 15.9-2 1.1-4 1.6-6 1.6zM681.5 205.3c-2.1 0-4.2-0.6-6.1-1.8l-29.1-18.2c-5.4-3.4-7-10.5-3.7-15.9 3.4-5.4 10.5-7 15.9-3.7l29.1 18.2c5.4 3.4 7 10.5 3.7 15.9-2.2 3.5-5.9 5.5-9.8 5.5zM879.1 262.5c-6.4 0-11.6-5.2-11.6-11.6 0-6.4 5.2-11.6 11.6-11.6h34.3c6.4 0 11.6 5.2 11.6 11.6 0 6.4-5.2 11.6-11.6 11.6h-34.3zM827.2 172.7c-1.5 0-3.1-0.3-4.5-0.9-5.9-2.5-8.6-9.3-6.1-15.2l13.5-31.6c2.5-5.9 9.3-8.6 15.2-6.1 5.9 2.5 8.6 9.3 6.1 15.2l-13.5 31.6c-1.9 4.4-6.2 7-10.7 7zM650.7 334.3c-3.8 0-7.6-1.9-9.8-5.4-3.4-5.4-1.8-12.5 3.7-15.9l29.1-18.2c5.4-3.4 12.5-1.8 15.9 3.7 3.4 5.4 1.8 12.5-3.7 15.9l-29.1 18.2c-1.9 1.1-4 1.7-6.1 1.7zM702.4 383.8c-2 0-4.1-0.5-5.9-1.6-5.5-3.3-7.3-10.4-4-15.9l17.6-29.5c3.3-5.5 10.4-7.3 15.9-4s7.3 10.4 4 15.9l-17.6 29.5c-2.2 3.6-6 5.6-10 5.6zM865.4 204c-3.8 0-7.6-1.9-9.8-5.4-3.4-5.4-1.8-12.5 3.7-15.9l29.1-18.2c5.4-3.4 12.5-1.8 15.9 3.7 3.4 5.4 1.8 12.5-3.7 15.9l-29.1 18.2c-1.9 1.1-4 1.7-6.1 1.7z" fill="#FFCDAB" p-id="5292"></path><path d="M464.7 320.6m-162.7 0a162.7 162.7 0 1 0 325.4 0 162.7 162.7 0 1 0-325.4 0Z" fill="#D4F4EF" p-id="5293"></path><path d="M612 906.3H317.4c-36.9 0-67-30.2-67-67V679.6c0-96.3 78.8-175 175-175H504c96.3 0 175 78.8 175 175v159.7c0 36.8-30.1 67-67 67zM412.2 390.7c5.2 4.3 25.1 19.8 54.8 19.7 29.3-0.1 48.9-15.3 54.1-19.7" fill="#D4F4EF" p-id="5294"></path><path d="M394.2 499.9c-100.3 0-181.9-81.6-181.9-181.9 0-100.3 81.6-181.9 181.9-181.9 100.3 0 181.9 81.6 181.9 181.9 0 100.3-81.6 181.9-181.9 181.9z m0-325.4c-79.1 0-143.5 64.4-143.5 143.5s64.4 143.5 143.5 143.5S537.7 397.1 537.7 318c-0.1-79.1-64.4-143.5-143.5-143.5z" fill="#82CECC" p-id="5295"></path><path d="M544.1 922.9H244.2c-46.1 0-83.6-37.5-83.6-83.6V670c0-49.9 19.5-96.9 55-132.3 35.5-35.5 82.5-55 132.3-55h92.4c49.9 0 96.9 19.5 132.3 55 35.5 35.5 55 82.5 55 132.3v169.2c0.1 46.2-37.4 83.7-83.5 83.7zM348 521.1c-39.6 0-76.9 15.5-105.2 43.8C214.6 593.1 199 630.4 199 670v169.2c0 24.9 20.3 45.2 45.2 45.2h299.9c24.9 0 45.2-20.3 45.2-45.2V670c0-39.6-15.5-76.9-43.8-105.2-28.2-28.2-65.6-43.8-105.2-43.8H348zM396.1 422.1c-32.5 0-55.3-16.1-63.7-23-6.1-5.1-7-14.2-1.9-20.3 5.1-6.1 14.2-7 20.3-1.9 6 4.9 22.3 16.5 45.6 16.3 22.9-0.1 39.1-11.5 45-16.3 6.1-5.1 15.2-4.2 20.3 1.9 5.1 6.1 4.2 15.2-1.9 20.3-10.3 8.5-32.2 22.9-63.3 23h-0.4z" fill="#82CECC" p-id="5296"></path></svg>